<svg width="281" height="277" viewBox="0 0 281 277" fill="none" xmlns="http://www.w3.org/2000/svg">
<mask id="path-1-inside-1_2_27" fill="white">
<path d="M250 152C250 177.912 241.947 203.184 226.955 224.319C211.964 245.455 190.774 261.408 166.318 269.974C141.863 278.539 115.35 279.292 90.4469 272.129C65.5442 264.967 43.4831 250.242 27.3155 229.992C11.1479 209.742 1.67301 184.968 0.201672 159.098C-1.26967 133.227 5.33525 107.539 19.1027 85.5865C32.8701 63.6341 53.1195 46.5029 77.0494 36.5628C100.979 26.6227 127.407 24.3652 152.676 30.1024L125 152H250Z"/>
</mask>
<path d="M250 152C250 177.912 241.947 203.184 226.955 224.319C211.964 245.455 190.774 261.408 166.318 269.974C141.863 278.539 115.35 279.292 90.4469 272.129C65.5442 264.967 43.4831 250.242 27.3155 229.992C11.1479 209.742 1.67301 184.968 0.201672 159.098C-1.26967 133.227 5.33525 107.539 19.1027 85.5865C32.8701 63.6341 53.1195 46.5029 77.0494 36.5628C100.979 26.6227 127.407 24.3652 152.676 30.1024L125 152H250Z" fill="#F7C76A" stroke="#F7C76A" stroke-width="80" mask="url(#path-1-inside-1_2_27)"/>
<mask id="path-2-inside-2_2_27" fill="white">
<path d="M268.358 137.458C268.381 109.174 258.81 81.7176 241.21 59.576C223.609 37.4344 199.02 21.9166 171.459 15.5579L143.358 137.358L268.358 137.458Z"/>
</mask>
<path d="M268.358 137.458C268.381 109.174 258.81 81.7176 241.21 59.576C223.609 37.4344 199.02 21.9166 171.459 15.5579L143.358 137.358L268.358 137.458Z" fill="#F7C76A" stroke="#F7C76A" stroke-width="80" mask="url(#path-2-inside-2_2_27)"/>
</svg>
